<svg width="271" height="68" viewBox="0 0 271 68" fill="none" xmlns="http://www.w3.org/2000/svg">
<g filter="url(#filter0_di_205_316)">
<mask id="path-1-outside-1_205_316" maskUnits="userSpaceOnUse" x="4" y="2" width="259" height="56" fill="black">
<rect fill="white" x="4" y="2" width="259" height="56"/>
<path d="M40.3072 10.37V19.275H28.2171V56H17.1021V19.275H5.01215V10.37H40.3072ZM51.4755 15.96C49.5255 15.96 47.9221 15.3967 46.6655 14.27C45.4521 13.1 44.8455 11.67 44.8455 9.98C44.8455 8.24667 45.4521 6.81666 46.6655 5.69C47.9221 4.52 49.5255 3.935 51.4755 3.935C53.3821 3.935 54.9421 4.52 56.1555 5.69C57.4121 6.81666 58.0405 8.24667 58.0405 9.98C58.0405 11.67 57.4121 13.1 56.1555 14.27C54.9421 15.3967 53.3821 15.96 51.4755 15.96ZM57.0005 19.73V56H45.8855V19.73H57.0005ZM87.2204 56L76.1704 40.79V56H65.0554V7.9H76.1704V34.485L87.1554 19.73H100.87L85.7904 37.93L101 56H87.2204ZM159.83 56H148.715L130.125 27.855V56H119.01V10.37H130.125L148.715 38.645V10.37H159.83V56ZM184.397 56.52C180.844 56.52 177.637 55.7617 174.777 54.245C171.961 52.7283 169.729 50.5617 168.082 47.745C166.479 44.9283 165.677 41.635 165.677 37.865C165.677 34.1383 166.501 30.8667 168.147 28.05C169.794 25.19 172.047 23.0017 174.907 21.485C177.767 19.9683 180.974 19.21 184.527 19.21C188.081 19.21 191.287 19.9683 194.147 21.485C197.007 23.0017 199.261 25.19 200.907 28.05C202.554 30.8667 203.377 34.1383 203.377 37.865C203.377 41.5917 202.532 44.885 200.842 47.745C199.196 50.5617 196.921 52.7283 194.017 54.245C191.157 55.7617 187.951 56.52 184.397 56.52ZM184.397 46.9C186.521 46.9 188.319 46.12 189.792 44.56C191.309 43 192.067 40.7683 192.067 37.865C192.067 34.9617 191.331 32.73 189.857 31.17C188.427 29.61 186.651 28.83 184.527 28.83C182.361 28.83 180.562 29.61 179.132 31.17C177.702 32.6867 176.987 34.9183 176.987 37.865C176.987 40.7683 177.681 43 179.067 44.56C180.497 46.12 182.274 46.9 184.397 46.9ZM261.339 19.73L251.524 56H239.239L233.519 32.47L227.604 56H215.384L205.504 19.73H216.619L221.754 45.665L227.864 19.73H239.629L245.804 45.535L250.874 19.73H261.339Z"/>
</mask>
<path d="M40.3072 10.37V19.275H28.2171V56H17.1021V19.275H5.01215V10.37H40.3072ZM51.4755 15.96C49.5255 15.96 47.9221 15.3967 46.6655 14.27C45.4521 13.1 44.8455 11.67 44.8455 9.98C44.8455 8.24667 45.4521 6.81666 46.6655 5.69C47.9221 4.52 49.5255 3.935 51.4755 3.935C53.3821 3.935 54.9421 4.52 56.1555 5.69C57.4121 6.81666 58.0405 8.24667 58.0405 9.98C58.0405 11.67 57.4121 13.1 56.1555 14.27C54.9421 15.3967 53.3821 15.96 51.4755 15.96ZM57.0005 19.73V56H45.8855V19.73H57.0005ZM87.2204 56L76.1704 40.79V56H65.0554V7.9H76.1704V34.485L87.1554 19.73H100.87L85.7904 37.93L101 56H87.2204ZM159.83 56H148.715L130.125 27.855V56H119.01V10.37H130.125L148.715 38.645V10.37H159.83V56ZM184.397 56.52C180.844 56.52 177.637 55.7617 174.777 54.245C171.961 52.7283 169.729 50.5617 168.082 47.745C166.479 44.9283 165.677 41.635 165.677 37.865C165.677 34.1383 166.501 30.8667 168.147 28.05C169.794 25.19 172.047 23.0017 174.907 21.485C177.767 19.9683 180.974 19.21 184.527 19.21C188.081 19.21 191.287 19.9683 194.147 21.485C197.007 23.0017 199.261 25.19 200.907 28.05C202.554 30.8667 203.377 34.1383 203.377 37.865C203.377 41.5917 202.532 44.885 200.842 47.745C199.196 50.5617 196.921 52.7283 194.017 54.245C191.157 55.7617 187.951 56.52 184.397 56.52ZM184.397 46.9C186.521 46.9 188.319 46.12 189.792 44.56C191.309 43 192.067 40.7683 192.067 37.865C192.067 34.9617 191.331 32.73 189.857 31.17C188.427 29.61 186.651 28.83 184.527 28.83C182.361 28.83 180.562 29.61 179.132 31.17C177.702 32.6867 176.987 34.9183 176.987 37.865C176.987 40.7683 177.681 43 179.067 44.56C180.497 46.12 182.274 46.9 184.397 46.9ZM261.339 19.73L251.524 56H239.239L233.519 32.47L227.604 56H215.384L205.504 19.73H216.619L221.754 45.665L227.864 19.73H239.629L245.804 45.535L250.874 19.73H261.339Z" fill="url(#paint0_linear_205_316)" shape-rendering="crispEdges"/>
<path d="M40.3072 10.37H41.3072V9.37H40.3072V10.37ZM40.3072 19.275V20.275H41.3072V19.275H40.3072ZM28.2171 19.275V18.275H27.2171V19.275H28.2171ZM28.2171 56V57H29.2171V56H28.2171ZM17.1021 56H16.1021V57H17.1021V56ZM17.1021 19.275H18.1021V18.275H17.1021V19.275ZM5.01215 19.275H4.01215V20.275H5.01215V19.275ZM5.01215 10.37V9.37H4.01215V10.37H5.01215ZM40.3072 10.37H39.3072V19.275H40.3072H41.3072V10.37H40.3072ZM40.3072 19.275V18.275H28.2171V19.275V20.275H40.3072V19.275ZM28.2171 19.275H27.2171V56H28.2171H29.2171V19.275H28.2171ZM28.2171 56V55H17.1021V56V57H28.2171V56ZM17.1021 56H18.1021V19.275H17.1021H16.1021V56H17.1021ZM17.1021 19.275V18.275H5.01215V19.275V20.275H17.1021V19.275ZM5.01215 19.275H6.01215V10.37H5.01215H4.01215V19.275H5.01215ZM5.01215 10.37V11.37H40.3072V10.37V9.37H5.01215V10.37ZM46.6655 14.27L45.9713 14.9898L45.9844 15.0024L45.9979 15.0146L46.6655 14.27ZM46.6655 5.69L47.3459 6.42279L47.3469 6.42189L46.6655 5.69ZM56.1555 5.69L55.4613 6.40984L55.4744 6.42244L55.4879 6.43457L56.1555 5.69ZM56.1555 14.27L56.8359 15.0028L56.8369 15.0019L56.1555 14.27ZM57.0005 19.73H58.0005V18.73H57.0005V19.73ZM57.0005 56V57H58.0005V56H57.0005ZM45.8855 56H44.8855V57H45.8855V56ZM45.8855 19.73V18.73H44.8855V19.73H45.8855ZM51.4755 15.96V14.96C49.7311 14.96 48.378 14.4623 47.333 13.5254L46.6655 14.27L45.9979 15.0146C47.4663 16.331 49.3199 16.96 51.4755 16.96V15.96ZM46.6655 14.27L47.3596 13.5502C46.3423 12.5692 45.8455 11.3993 45.8455 9.98H44.8455H43.8455C43.8455 11.9407 44.562 13.6308 45.9713 14.9898L46.6655 14.27ZM44.8455 9.98H45.8455C45.8455 8.51005 46.3469 7.35048 47.3459 6.42279L46.6655 5.69L45.985 4.9572C44.5574 6.28285 43.8455 7.98328 43.8455 9.98H44.8455ZM46.6655 5.69L47.3469 6.42189C48.3931 5.44782 49.7414 4.935 51.4755 4.935V3.935V2.935C49.3095 2.935 47.4512 3.59217 45.9841 4.9581L46.6655 5.69ZM51.4755 3.935V4.935C53.16 4.935 54.4593 5.44359 55.4613 6.40984L56.1555 5.69L56.8496 4.97015C55.425 3.5964 53.6042 2.935 51.4755 2.935V3.935ZM56.1555 5.69L55.4879 6.43457C56.5266 7.36579 57.0405 8.52208 57.0405 9.98H58.0405H59.0405C59.0405 7.97125 58.2977 6.26754 56.823 4.94543L56.1555 5.69ZM58.0405 9.98H57.0405C57.0405 11.3874 56.5312 12.5538 55.4741 13.5381L56.1555 14.27L56.8369 15.0019C58.293 13.6462 59.0405 11.9526 59.0405 9.98H58.0405ZM56.1555 14.27L55.475 13.5372C54.4746 14.4661 53.1707 14.96 51.4755 14.96V15.96V16.96C53.5935 16.96 55.4096 16.3272 56.8359 15.0028L56.1555 14.27ZM57.0005 19.73H56.0005V56H57.0005H58.0005V19.73H57.0005ZM57.0005 56V55H45.8855V56V57H57.0005V56ZM45.8855 56H46.8855V19.73H45.8855H44.8855V56H45.8855ZM45.8855 19.73V20.73H57.0005V19.73V18.73H45.8855V19.73ZM87.2204 56L86.4114 56.5878L86.7108 57H87.2204V56ZM76.1704 40.79L76.9794 40.2022L75.1704 37.7122V40.79H76.1704ZM76.1704 56V57H77.1704V56H76.1704ZM65.0554 56H64.0554V57H65.0554V56ZM65.0554 7.9V6.9H64.0554V7.9H65.0554ZM76.1704 7.9H77.1704V6.9H76.1704V7.9ZM76.1704 34.485H75.1704V37.5028L76.9725 35.0822L76.1704 34.485ZM87.1554 19.73V18.73H86.6532L86.3533 19.1328L87.1554 19.73ZM100.87 19.73L101.64 20.368L102.998 18.73H100.87V19.73ZM85.7904 37.93L85.0204 37.292L84.4875 37.935L85.0253 38.574L85.7904 37.93ZM101 56V57H103.149L101.765 55.356L101 56ZM87.2204 56L88.0294 55.4122L76.9794 40.2022L76.1704 40.79L75.3614 41.3778L86.4114 56.5878L87.2204 56ZM76.1704 40.79H75.1704V56H76.1704H77.1704V40.79H76.1704ZM76.1704 56V55H65.0554V56V57H76.1704V56ZM65.0554 56H66.0554V7.9H65.0554H64.0554V56H65.0554ZM65.0554 7.9V8.9H76.1704V7.9V6.9H65.0554V7.9ZM76.1704 7.9H75.1704V34.485H76.1704H77.1704V7.9H76.1704ZM76.1704 34.485L76.9725 35.0822L87.9575 20.3272L87.1554 19.73L86.3533 19.1328L75.3683 33.8878L76.1704 34.485ZM87.1554 19.73V20.73H100.87V19.73V18.73H87.1554V19.73ZM100.87 19.73L100.1 19.092L85.0204 37.292L85.7904 37.93L86.5604 38.568L101.64 20.368L100.87 19.73ZM85.7904 37.93L85.0253 38.574L100.235 56.644L101 56L101.765 55.356L86.5554 37.286L85.7904 37.93ZM101 56V55H87.2204V56V57H101V56ZM159.83 56V57H160.83V56H159.83ZM148.715 56L147.881 56.5511L148.178 57H148.715V56ZM130.125 27.855L130.96 27.3039L129.125 24.5266V27.855H130.125ZM130.125 56V57H131.125V56H130.125ZM119.01 56H118.01V57H119.01V56ZM119.01 10.37V9.37H118.01V10.37H119.01ZM130.125 10.37L130.961 9.82063L130.665 9.37H130.125V10.37ZM148.715 38.645L147.88 39.1944L149.715 41.9862V38.645H148.715ZM148.715 10.37V9.37H147.715V10.37H148.715ZM159.83 10.37H160.83V9.37H159.83V10.37ZM159.83 56V55H148.715V56V57H159.83V56ZM148.715 56L149.55 55.4489L130.96 27.3039L130.125 27.855L129.291 28.4061L147.881 56.5511L148.715 56ZM130.125 27.855H129.125V56H130.125H131.125V27.855H130.125ZM130.125 56V55H119.01V56V57H130.125V56ZM119.01 56H120.01V10.37H119.01H118.01V56H119.01ZM119.01 10.37V11.37H130.125V10.37V9.37H119.01V10.37ZM130.125 10.37L129.29 10.9194L147.88 39.1944L148.715 38.645L149.551 38.0956L130.961 9.82063L130.125 10.37ZM148.715 38.645H149.715V10.37H148.715H147.715V38.645H148.715ZM148.715 10.37V11.37H159.83V10.37V9.37H148.715V10.37ZM159.83 10.37H158.83V56H159.83H160.83V10.37H159.83ZM174.777 54.245L174.303 55.1255L174.309 55.1285L174.777 54.245ZM168.082 47.745L167.213 48.2397L167.219 48.2497L168.082 47.745ZM168.147 28.05L169.011 28.5547L169.014 28.549L168.147 28.05ZM174.907 21.485L175.376 22.3685L175.376 22.3685L174.907 21.485ZM194.147 21.485L193.679 22.3685L193.679 22.3685L194.147 21.485ZM200.907 28.05L200.041 28.549L200.044 28.5547L200.907 28.05ZM200.842 47.745L199.981 47.2363L199.979 47.2403L200.842 47.745ZM194.017 54.245L193.554 53.3586L193.549 53.3615L194.017 54.245ZM189.792 44.56L189.075 43.8629L189.07 43.8681L189.065 43.8734L189.792 44.56ZM189.857 31.17L189.12 31.8457L189.125 31.8512L189.13 31.8566L189.857 31.17ZM179.132 31.17L179.86 31.8561L179.87 31.8457L179.132 31.17ZM179.067 44.56L178.32 45.2244L178.325 45.2301L178.33 45.2357L179.067 44.56ZM184.397 56.52V55.52C180.991 55.52 177.948 54.7944 175.246 53.3615L174.777 54.245L174.309 55.1285C177.327 56.7289 180.697 57.52 184.397 57.52V56.52ZM174.777 54.245L175.252 53.3645C172.6 51.9368 170.502 49.9017 168.946 47.2403L168.082 47.745L167.219 48.2497C168.957 51.2217 171.322 53.5199 174.303 55.1255L174.777 54.245ZM168.082 47.745L168.951 47.2503C167.447 44.6074 166.677 41.4901 166.677 37.865H165.677H164.677C164.677 41.7799 165.511 45.2493 167.213 48.2397L168.082 47.745ZM165.677 37.865H166.677C166.677 34.2901 167.466 31.1975 169.011 28.5547L168.147 28.05L167.284 27.5453C165.536 30.5358 164.677 33.9866 164.677 37.865H165.677ZM168.147 28.05L169.014 28.549C170.569 25.8487 172.686 23.7952 175.376 22.3685L174.907 21.485L174.439 20.6015C171.409 22.2082 169.019 24.5313 167.281 27.551L168.147 28.05ZM174.907 21.485L175.376 22.3685C178.078 20.9356 181.121 20.21 184.527 20.21V19.21V18.21C180.827 18.21 177.457 19.0011 174.439 20.6015L174.907 21.485ZM184.527 19.21V20.21C187.934 20.21 190.977 20.9356 193.679 22.3685L194.147 21.485L194.616 20.6015C191.598 19.0011 188.228 18.21 184.527 18.21V19.21ZM194.147 21.485L193.679 22.3685C196.369 23.7952 198.486 25.8487 200.041 28.549L200.907 28.05L201.774 27.551C200.035 24.5313 197.646 22.2082 194.616 20.6015L194.147 21.485ZM200.907 28.05L200.044 28.5547C201.589 31.1975 202.377 34.2901 202.377 37.865H203.377H204.377C204.377 33.9866 203.519 30.5358 201.771 27.5453L200.907 28.05ZM203.377 37.865H202.377C202.377 41.435 201.57 44.5485 199.981 47.2363L200.842 47.745L201.703 48.2537C203.495 45.2215 204.377 41.7483 204.377 37.865H203.377ZM200.842 47.745L199.979 47.2403C198.428 49.894 196.292 51.9287 193.554 53.3587L194.017 54.245L194.48 55.1313C197.55 53.528 199.964 51.2294 201.706 48.2497L200.842 47.745ZM194.017 54.245L193.549 53.3615C190.847 54.7944 187.804 55.52 184.397 55.52V56.52V57.52C188.098 57.52 191.468 56.7289 194.486 55.1285L194.017 54.245ZM184.397 46.9V47.9C186.799 47.9 188.859 47.0042 190.519 45.2466L189.792 44.56L189.065 43.8734C187.779 45.2358 186.242 45.9 184.397 45.9V46.9ZM189.792 44.56L190.509 45.2571C192.262 43.4548 193.067 40.9391 193.067 37.865H192.067H191.067C191.067 40.5975 190.357 42.5452 189.075 43.8629L189.792 44.56ZM192.067 37.865H193.067C193.067 34.7982 192.287 32.2865 190.584 30.4834L189.857 31.17L189.13 31.8566C190.374 33.1735 191.067 35.1252 191.067 37.865H192.067ZM189.857 31.17L190.595 30.4943C188.974 28.7269 186.93 27.83 184.527 27.83V28.83V29.83C186.372 29.83 187.88 30.4931 189.12 31.8457L189.857 31.17ZM184.527 28.83V27.83C182.088 27.83 180.02 28.7221 178.395 30.4943L179.132 31.17L179.87 31.8457C181.105 30.4979 182.633 29.83 184.527 29.83V28.83ZM179.132 31.17L178.405 30.484C176.739 32.251 175.987 34.769 175.987 37.865H176.987H177.987C177.987 35.0676 178.666 33.1223 179.86 31.856L179.132 31.17ZM176.987 37.865H175.987C175.987 40.9175 176.717 43.4206 178.32 45.2244L179.067 44.56L179.815 43.8956C178.645 42.5794 177.987 40.6192 177.987 37.865H176.987ZM179.067 44.56L178.33 45.2357C179.95 47.0031 181.995 47.9 184.397 47.9V46.9V45.9C182.553 45.9 181.044 45.2369 179.805 43.8843L179.067 44.56ZM261.339 19.73L262.304 19.9912L262.646 18.73H261.339V19.73ZM251.524 56V57H252.289L252.489 56.2612L251.524 56ZM239.239 56L238.267 56.2362L238.453 57H239.239V56ZM233.519 32.47L234.491 32.2338L232.549 32.2262L233.519 32.47ZM227.604 56V57H228.384L228.574 56.2438L227.604 56ZM215.384 56L214.419 56.2628L214.62 57H215.384V56ZM205.504 19.73V18.73H204.195L204.539 19.9928L205.504 19.73ZM216.619 19.73L217.6 19.5358L217.441 18.73H216.619V19.73ZM221.754 45.665L220.773 45.8592L222.727 45.8943L221.754 45.665ZM227.864 19.73V18.73H227.072L226.891 19.5007L227.864 19.73ZM239.629 19.73L240.602 19.4973L240.418 18.73H239.629V19.73ZM245.804 45.535L244.832 45.7677L246.785 45.7278L245.804 45.535ZM250.874 19.73V18.73H250.051L249.893 19.5372L250.874 19.73ZM261.339 19.73L260.374 19.4688L250.559 55.7388L251.524 56L252.489 56.2612L262.304 19.9912L261.339 19.73ZM251.524 56V55H239.239V56V57H251.524V56ZM239.239 56L240.211 55.7638L234.491 32.2338L233.519 32.47L232.547 32.7062L238.267 56.2362L239.239 56ZM233.519 32.47L232.549 32.2262L226.634 55.7562L227.604 56L228.574 56.2438L234.489 32.7138L233.519 32.47ZM227.604 56V55H215.384V56V57H227.604V56ZM215.384 56L216.349 55.7372L206.469 19.4672L205.504 19.73L204.539 19.9928L214.419 56.2628L215.384 56ZM205.504 19.73V20.73H216.619V19.73V18.73H205.504V19.73ZM216.619 19.73L215.638 19.9242L220.773 45.8592L221.754 45.665L222.735 45.4708L217.6 19.5358L216.619 19.73ZM221.754 45.665L222.727 45.8943L228.837 19.9593L227.864 19.73L226.891 19.5007L220.781 45.4357L221.754 45.665ZM227.864 19.73V20.73H239.629V19.73V18.73H227.864V19.73ZM239.629 19.73L238.657 19.9627L244.832 45.7677L245.804 45.535L246.777 45.3023L240.602 19.4973L239.629 19.73ZM245.804 45.535L246.785 45.7278L251.855 19.9228L250.874 19.73L249.893 19.5372L244.823 45.3422L245.804 45.535ZM250.874 19.73V20.73H261.339V19.73V18.73H250.874V19.73Z" fill="black" fill-opacity="0.5" mask="url(#path-1-outside-1_205_316)"/>
</g>
<defs>
<filter id="filter0_di_205_316" x="0.012207" y="0.935059" width="270.634" height="66.585" filterUnits="userSpaceOnUse" color-interpolation-filters="sRGB">
<feFlood flood-opacity="0" result="BackgroundImageFix"/>
<feColorMatrix in="SourceAlpha" type="matrix" values="0 0 0 0 0 0 0 0 0 0 0 0 0 0 0 0 0 0 127 0" result="hardAlpha"/>
<feOffset dx="2" dy="4"/>
<feGaussianBlur stdDeviation="3"/>
<feComposite in2="hardAlpha" operator="out"/>
<feColorMatrix type="matrix" values="0 0 0 0 0.0745098 0 0 0 0 0.0431373 0 0 0 0 0.168627 0 0 0 0.5 0"/>
<feBlend mode="normal" in2="BackgroundImageFix" result="effect1_dropShadow_205_316"/>
<feBlend mode="normal" in="SourceGraphic" in2="effect1_dropShadow_205_316" result="shape"/>
<feColorMatrix in="SourceAlpha" type="matrix" values="0 0 0 0 0 0 0 0 0 0 0 0 0 0 0 0 0 0 127 0" result="hardAlpha"/>
<feOffset/>
<feGaussianBlur stdDeviation="5"/>
<feComposite in2="hardAlpha" operator="arithmetic" k2="-1" k3="1"/>
<feColorMatrix type="matrix" values="0 0 0 0 1 0 0 0 0 0.564706 0 0 0 0 0.854902 0 0 0 0.5 0"/>
<feBlend mode="normal" in2="shape" result="effect2_innerShadow_205_316"/>
</filter>
<linearGradient id="paint0_linear_205_316" x1="3.00001" y1="-16" x2="262.307" y2="81.1801" gradientUnits="userSpaceOnUse">
<stop stop-color="#FE53BB"/>
<stop offset="1" stop-color="#0099FF" stop-opacity="0.741176"/>
</linearGradient>
</defs>
</svg>
